<!-- <svg viewBox="0 0 48 48" id="Layer_2" data-name="Layer 2" xmlns="http://www.w3.org/2000/svg" fill="#ffffff" stroke="#ffffff"><g id="SVGRepo_bgCarrier" stroke-width="0"></g><g id="SVGRepo_tracerCarrier" stroke-linecap="round" stroke-linejoin="round"></g><g id="SVGRepo_iconCarrier"><defs><style>.cls-1{fill:none;stroke:#ffffff;stroke-linecap:round;stroke-linejoin:round;}</style></defs><path class="cls-1" d="M35.38,10.46a2.19,2.19,0,1,0,2.16,2.22v-.06A2.18,2.18,0,0,0,35.38,10.46Z"></path><path class="cls-1" d="M40.55,5.5H7.45a2,2,0,0,0-1.95,2v33.1a2,2,0,0,0,2,2h33.1a2,2,0,0,0,2-2V7.45A2,2,0,0,0,40.55,5.5Z"></path><path class="cls-1" d="M24,15.72A8.28,8.28,0,1,0,32.28,24h0A8.28,8.28,0,0,0,24,15.72Z"></path></g></svg> -->
<svg viewBox="0 0 64 64" xmlns="http://www.w3.org/2000/svg" fill="none" stroke="#ffffff"><g id="SVGRepo_bgCarrier" stroke-width="0"></g><g id="SVGRepo_tracerCarrier" stroke-linecap="round" stroke-linejoin="round"></g><g id="SVGRepo_iconCarrier"><line x1="53" y1="56" x2="53" y2="32"></line><line x1="23" y1="56" x2="23" y2="20"></line><path d="M23 32c0-6.63 6.72-12 15-12s15 5.37 15 12"></path><line x1="11" y1="8" x2="11" y2="14"></line><line x1="11" y1="20" x2="11" y2="56"></line></g></svg>